# xmcd
#
# Track frame offsets:
#	150
#	20757
#	41102
#	60587
#	78567
#	98957
#	125882
#	137547
#	163640
#	184197
#	207800
#
# Disc length: 3031 seconds
#
# Revision: 1
# Processed by: cddbd v1.5.1PL0 Copyright (c) Steve Scherf et al.
# Submitted via: CDex 1.50Beta5
#
DISCID=9c0bd50b
DTITLE=プライベーツ - SPEAK EASY
DYEAR=1989
DGENRE=Rock
TTITLE0=STEADY ROLLIN’TRAIN
TTITLE1=気まぐれロメオ
TTITLE2=FOOL TO CRY
TTITLE3=ALL DOWN THE RIVER
TTITLE4=SWAMP TURKEY
TTITLE5=TIME WAITS FOR NO ONE
TTITLE6=SHAKIN’DUDE
TTITLE7=SPEAK EASY
TTITLE8=LONELY SUMMER NIGHT
TTITLE9=GONE DEAD TRAIN
TTITLE10=EVERYBODY SAY YEAH!
EXTD=
EXTT0=
EXTT1=
EXTT2=
EXTT3=
EXTT4=
EXTT5=
EXTT6=
EXTT7=
EXTT8=
EXTT9=
EXTT10=
PLAYORDER=
